<svg width="580" height="400" xmlns="http://www.w3.org/2000/svg">
 <!-- Created with Method Draw - http://github.com/duopixel/Method-Draw/ -->
 <defs>
  <filter height="200%" width="200%" y="-50%" x="-50%" id="svg_2_blur">
   <feGaussianBlur stdDeviation="0" in="SourceGraphic"/>
  </filter>
 </defs>
 <g>
  <title>background</title>
  <rect fill="#fff" id="canvas_background" height="402" width="582" y="-1" x="-1"/>
  <g display="none" overflow="visible" y="0" x="0" height="100%" width="100%" id="canvasGrid">
   <rect fill="url(#gridpattern)" stroke-width="0" y="0" x="0" height="100%" width="100%"/>
  </g>
 </g>
 <g>
  <title>Layer 1</title>
  <path stroke="#000" opacity="0.45" id="svg_1" d="m304.950001,59.179238c-78.977651,0 -143.000023,62.903089 -143.000023,140.5c0,77.596911 64.022372,140.5 143.000023,140.5c78.977651,0 143.000023,-62.903089 143.000023,-140.5c0,-77.596911 -64.022372,-140.5 -143.000023,-140.5zm31.071561,210.769334c-0.777281,0.618687 -1.800537,1.256708 -1.033095,2.001066c0.767442,0.754025 -0.88551,1.266375 -0.88551,1.643388s1.023256,2.378079 0.511628,3.248108c-0.511628,0.889363 -0.895349,2.155738 -1.27907,2.909763c-0.383721,0.744358 -1.288909,1.498383 -1.023256,2.629421c0.245975,1.121371 -1.023256,0.744358 -1.023256,1.875396c0,1.121371 1.141324,0.628354 0.88551,2.010733c-0.245975,1.392046 -0.88551,1.769059 -0.88551,2.755092c0,1.005367 0.629696,2.387746 0.629696,2.764758s-0.629696,1.643388 -1.525045,2.629421c-0.905188,1.005367 -1.525045,1.643388 -1.416816,2.252408c0.137746,0.628354 1.023256,1.392046 0.895349,1.778726c-0.127907,0.357679 -1.269231,1.624054 -1.141324,2.50375c0.137746,0.870029 1.269231,0.51235 1.525045,1.121371c0.255814,0.628354 -1.525045,1.140705 -0.767442,1.769059c0.767442,0.618687 1.800537,0.493016 1.534884,2.010733c-0.186941,1.082703 0.629696,1.575719 1.239714,1.914064c-8.766549,2.136404 -17.887302,3.40278 -27.322902,3.40278c-62.576039,0 -113.473184,-50.007328 -113.473184,-111.48937c0,-20.039666 5.480323,-38.812956 14.935602,-55.072829c0.777281,-0.406013 1.347943,-0.667022 1.682469,-0.599353c0.639535,0.125671 0.777281,1.005367 1.800537,1.256708c1.023256,0.251342 1.918605,-0.754025 2.55814,-1.131038c0.629696,-0.377013 1.141324,-1.885063 0.501789,-1.759392c-0.639535,0.125671 -2.302326,0 -2.302326,0s1.800537,-1.005367 1.800537,-1.633721s0.245975,-1.633721 1.269231,-2.010733c1.013417,-0.38668 1.013417,-0.135338 0.373882,1.372712c-0.639535,1.50805 1.288909,0.879696 2.046512,0.251342s1.27907,-0.125671 2.676208,-1.005367c1.406977,-0.879696 1.406977,-1.382379 2.174419,-1.382379c0.767442,0 2.174419,1.382379 2.941861,0.879696c0.757603,-0.502683 2.941861,0.628354 4.220931,0.628354c1.269231,0 5.362255,1.633721 6.139536,1.633721c0.767442,0 3.069768,0.870029 3.197675,2.50375c0.127907,1.633721 0.88551,1.50805 1.652952,1.50805s2.55814,0.628354 2.55814,1.256708c0,0.628354 -0.511628,3.141771 0.767442,3.770125c1.269231,0.618687 2.430233,1.633721 2.941861,1.382379c0.511628,-0.251342 0,-2.252408 -0.629696,-2.513417c-0.639535,-0.251342 -0.265653,-1.131038 -0.511628,-1.633721c-0.255814,-0.493016 0.767442,-0.493016 1.151163,0.377013c0.383721,0.879696 1.406977,2.513417 2.046512,2.513417c0.629696,0 2.046512,1.50805 1.652952,2.387746c-0.383721,0.879696 0.383721,2.136404 1.534884,2.136404c1.141324,0 2.55814,1.759392 3.069768,1.885063c0.511628,0.125671 1.151163,0.754025 1.151163,1.131038c0,0.38668 0.639535,2.513417 0.639535,3.393113c0,0.870029 -0.39356,4.388812 -0.521467,5.771192s1.023256,3.770125 2.302326,5.026834c1.269231,1.256708 2.420394,3.644454 3.187836,4.147138c0.777281,0.502683 1.27907,1.885063 2.430233,1.759392c1.151163,-0.125671 1.918605,0.754025 2.941861,2.513417c1.023256,1.759392 2.046512,4.640154 2.813954,4.891496c0.767442,0.251342 2.046512,1.131038 1.397138,1.759392c-0.629696,0.618687 -1.652952,2.010733 -0.501789,2.010733c1.151163,0 1.534884,-0.628354 2.430233,0.51235c0.88551,1.121371 2.046512,1.749725 1.908766,2.513417c-0.127907,0.744358 1.023256,0.9957 1.534884,1.121371c0.511628,0.125671 1.662791,2.387746 2.813954,1.382379c1.151163,-1.005367 -1.525045,-2.50375 -2.302326,-3.151438c-0.767442,-0.618687 0,-2.001066 -1.790698,-3.383446c-1.790698,-1.382379 -1.534884,-2.387746 -2.813954,-3.393113c-1.27907,-1.005367 -2.292487,-1.885063 -1.023256,-2.764758c1.27907,-0.879696 1.406977,0.879696 1.918605,2.010733c0.511628,1.121371 3.187836,3.393113 4.338999,4.388812c1.151163,1.005367 3.207514,4.52415 3.83721,4.52415s2.430233,2.010733 2.430233,2.010733s1.013417,1.624054 0.629696,2.126737c-0.383721,0.502683 0.521467,2.387746 1.416816,2.890429c0.88551,0.502683 4.476745,2.126737 4.988373,2.387746c0.511628,0.261009 1.525045,2.136404 2.941861,2.136404c1.397138,0 2.430233,0.135338 2.813954,0.51235c0.383721,0.367346 1.525045,1.875396 2.302326,1.005367c0.767442,-0.889363 0.88551,-1.266375 2.046512,-1.266375c1.151163,0 1.652952,0.879696 2.292487,1.50805c0.639535,0.628354 2.430233,2.271742 3.325582,2.146071c0.895349,-0.125671 2.046512,1.005367 2.686047,0.618687s1.662791,0.241675 2.16458,0.502683c0.531306,0.251342 2.302326,1.140705 2.184258,2.629421c-0.127907,1.517717 1.013417,1.885063 1.790698,2.262075c0.767442,0.377013 1.790698,1.256708 2.440072,1.885063c0.629696,0.60902 2.026834,0.744358 2.420394,1.121371c0.383721,0.377013 0.639535,1.131038 1.790698,0.502683c1.141324,-0.618687 0.905188,-1.749725 0.905188,-1.749725s1.269231,-0.251342 1.908766,0.251342c0.629696,0.483349 1.023256,2.126737 1.416816,2.378079c0.373882,0.251342 1.131485,2.136404 0.619857,3.49945c-0.501789,1.401713 -0.373882,2.764758 -0.895349,2.764758c-0.511628,0 -1.141324,1.643388 -1.918605,2.0204c-0.747764,0.377013 -2.804115,2.136404 -2.676208,2.764758c0.127907,0.60902 1.288909,2.494083 1.023256,3.383446c-0.245975,0.879696 -1.908766,1.885063 -1.515206,3.267442c0.373882,1.392046 3.069768,1.769059 3.177997,3.0161c0.137746,1.266375 2.056351,4.031134 2.312165,5.278175c0.245975,1.256708 2.420394,2.629421 2.420394,4.379145c0,1.778726 3.069768,2.900096 3.709303,3.0161c0.619857,0.125671 1.790698,1.266375 2.676208,1.643388s1.662791,1.121371 2.292487,2.136404s0.521467,2.523084 0.521467,2.890429c0,0.377013 -0.383721,4.253475 -0.767442,6.51555c-0.39356,2.271742 0.49195,4.031134 -0.265653,4.669155zm-82.568886,-116.786879c0.383721,0.125671 1.151163,0.879696 1.534884,0.879696c0.39356,0 2.302326,1.50805 2.813954,2.010733c0.521467,0.502683 0.521467,1.885063 -0.127907,2.010733s-1.023256,-1.382379 -1.151163,-2.010733c-0.127907,-0.628354 -1.406977,-0.628354 -2.046512,-1.005367c-0.639535,-0.377013 -2.06619,-2.233074 -1.023256,-1.885063zm164.744212,50.48101c-1.416816,1.759392 -1.27907,2.629421 -1.918605,2.764758c-0.629696,0.125671 0.639535,0.628354 0.88551,1.875396c0.216458,1.082703 -0.639535,2.165405 0.619857,3.161105c-4.781754,44.651816 -36.502689,81.531375 -78.869422,94.610809c-0.068873,-0.106337 -0.186941,-0.241675 -0.206619,-0.328678c-0.265653,-0.754025 -0.265653,-2.252408 0.629696,-2.755092c0.895349,-0.51235 3.069768,-2.252408 3.571557,-2.629421c0.511628,-0.38668 1.27907,-2.136404 0.895349,-2.387746c-0.373882,-0.251342 -2.282648,0 -2.55814,-0.377013c-0.255814,-0.377013 -0.255814,-0.889363 1.023256,-1.759392c1.27907,-0.879696 1.918605,-2.146071 2.430233,-2.513417c0.511628,-0.377013 1.525045,-1.131038 1.918605,-2.0204c0.373882,-0.870029 -0.403399,-0.377013 -1.161002,-0.377013s-1.151163,-1.372712 -1.151163,-2.001066s1.918605,0.251342 3.335421,0.502683c1.406977,0.232008 0.757603,-0.628354 0.629696,-1.372712c-0.127907,-0.754025 0.255814,-2.0204 1.033095,-1.643388c0.747764,0.377013 4.712881,-0.125671 5.224509,-0.251342c0.511628,-0.125671 1.908766,-2.378079 2.420394,-3.0161c0.521467,-0.628354 0.629696,-1.247041 0,-1.624054c-0.639535,-0.38668 -1.406977,-1.778726 -1.652952,-2.136404c-0.255814,-0.396346 -0.383721,-2.648755 -0.127907,-3.286776c0.245975,-0.60902 0,3.644454 1.780859,4.156805c1.800537,0.502683 2.813954,0.754025 4.476745,-0.754025c1.662791,-1.498383 2.932022,-2.513417 3.069768,-3.509117c0.127907,-1.005367 0.511628,-2.0204 1.151163,-2.378079c0.639535,-0.377013 1.023256,0.9957 1.790698,-0.628354c0.767442,-1.643388 1.534884,-1.517717 2.302326,-2.890429c0.757603,-1.392046 -1.27907,-3.141771 0.236136,-4.156805c1.544723,-0.9957 4.23077,-2.252408 4.23077,-2.252408s0.767442,-0.377013 2.302326,-0.754025c1.525045,-0.367346 3.187836,-0.135338 3.699464,-0.870029c0.511628,-0.763692 1.023256,-2.387746 1.790698,-3.267442c0.777281,-0.889363 1.662791,-2.262075 1.27907,-2.890429c-0.383721,-0.628354 1.023256,-3.40278 0.895349,-4.147138c-0.127907,-0.754025 -1.27907,-2.523084 0.639535,-4.021467s3.955278,-3.779792 4.093024,-4.388812c0.118068,-0.628354 1.662791,-3.267442 1.515206,-4.533817c-0.118068,-1.247041 -1.515206,-2.755092 -2.410555,-3.141771c-0.905188,-0.357679 -2.813954,-0.483349 -3.581396,-1.488716s-2.941861,-2.010733 -3.709303,-1.759392c-0.757603,0.251342 -2.046512,0.493016 -3.069768,-0.145005c-1.023256,-0.60902 -2.676208,-1.382379 -3.315743,-1.875396c-0.649374,-0.493016 -2.302326,-0.870029 -3.069768,-0.870029s-0.639535,-0.51235 -1.790698,0.9957c-1.151163,1.517717 0,2.0204 -2.046512,1.759392c-2.056351,-0.232008 0.245975,-0.367346 1.416816,-1.875396c1.131485,-1.498383 -0.137746,-2.387746 -1.416816,-2.001066c-1.27907,0.377013 -0.383721,1.131038 -2.430233,1.50805c-2.036673,0.367346 -2.036673,-0.889363 -0.757603,-1.131038c1.27907,-0.251342 3.571557,-1.382379 3.571557,-1.875396c0,-0.51235 -0.255814,-1.89473 -1.27907,-1.89473s-0.767442,-1.247041 -2.292487,-2.871095c-1.534884,-1.643388 -3.453489,-2.648755 -4.998212,-2.40708c-1.515206,0.251342 -2.676208,0.628354 -3.44365,-0.734691c-0.767442,-1.392046 -1.662791,-1.643388 -2.184258,-2.387746c-0.501789,-0.754025 -1.790698,0 -2.174419,-0.377013s-0.383721,-0.377013 -0.383721,-0.377013s-1.662791,0.377013 -0.757603,-0.754025c0.88551,-1.131038 1.269231,-3.267442 0.88551,-3.141771c-0.373882,0.125671 -1.023256,1.89473 -1.652952,1.769059c-0.629696,-0.125671 -0.137746,-0.38668 -1.416816,-1.131038c-1.27907,-0.754025 -3.315743,-0.125671 -3.315743,0.502683c0,0.628354 -0.639535,1.131038 -0.639535,1.131038s-0.383721,-0.367346 -0.767442,-1.131038c-0.383721,-0.754025 -2.174419,-0.879696 -3.069768,-0.125671c-0.88551,0.754025 -1.397138,-1.89473 -2.036673,-1.89473s-1.908766,0.628354 -2.55814,1.778726c-0.629696,1.121371 -0.373882,2.755092 -0.905188,2.629421c-0.49195,-0.125671 -0.619857,-2.252408 -0.49195,-3.0161c0.118068,-0.763692 1.525045,-2.010733 0.49195,-2.262075c-1.013417,-0.251342 -2.548301,1.256708 -3.177997,1.382379c-0.639535,0.125671 -1.918605,1.005367 -2.686047,2.0204c-0.757603,0.9957 -1.141324,1.624054 -1.918605,2.001066c-0.757603,0.377013 -1.898927,0 -1.643113,-0.377013c0.245975,-0.377013 -2.184258,-1.749725 -2.567979,-1.256708c-0.39356,0.502683 -1.525045,0.879696 -2.676208,1.392046c-1.151163,0.502683 -2.184258,-0.628354 -2.430233,-1.131038s-0.777281,-0.618687 -0.895349,-2.262075c-0.127907,-1.624054 0.265653,-3.393113 0.639535,-4.388812c0.373882,-1.005367 -1.918605,-3.0161 -2.813954,-2.900096c-0.895349,0.145005 -1.790698,1.015034 -2.676208,0.879696c-0.905188,-0.116004 -0.511628,-0.367346 -1.918605,-0.367346c-1.406977,0 -0.255814,-0.241675 0,-1.382379c0.245975,-1.121371 -0.511628,-2.639088 0.905188,-3.644454c1.397138,-1.005367 0.895349,-3.393113 0,-3.509117c-0.905188,-0.135338 -2.567979,0.377013 -3.709303,0.251342c-1.141324,-0.135338 -2.046512,0.879696 -1.662791,2.001066c0.383721,1.131038 -0.639535,1.885063 -1.023256,1.769059c-0.383721,-0.125671 -0.88551,-0.754025 -2.302326,0.251342c-1.397138,0.9957 -1.908766,0.618687 -3.315743,-0.502683c-1.406977,-1.140705 -2.941861,-2.262075 -3.197675,-4.021467c-0.255814,-1.759392 -0.39356,-3.518784 0.127907,-4.52415c0.501789,-1.005367 0.501789,-2.755092 -0.255814,-3.0161c-0.767442,-0.241675 0.88551,-1.498383 1.780859,-1.749725c0.905188,-0.251342 2.302326,-1.382379 2.55814,-1.885063c0.255814,-0.502683 1.534884,-0.38668 2.932022,-0.38668c1.406977,0 1.662791,0 3.069768,0.754025c1.406977,0.754025 1.662791,-0.377013 1.662791,-0.754025c0,-0.377013 0.511628,-1.131038 2.046512,-1.005367c1.534884,0.125671 3.699464,-0.502683 4.093024,-0.125671s1.141324,1.885063 1.908766,1.382379c0.777281,-0.493016 1.023256,-1.382379 1.288909,0.135338c0.245975,1.498383 0.88551,3.770125 2.046512,4.147138c1.141324,0.377013 0.511628,1.875396 1.652952,2.001066c1.131485,0.125671 1.67263,-2.378079 1.288909,-3.257775c-0.39356,-0.870029 -1.161002,-3.509117 -1.800537,-4.137471c-0.629696,-0.628354 -0.629696,-2.262075 0.629696,-2.764758c1.27907,-0.502683 4.348838,-3.0161 5.234348,-3.760458c0.905188,-0.763692 3.325582,-1.392046 2.567979,-2.397413c-0.767442,-1.005367 -1.023256,-1.624054 -1.023256,-2.387746s0.767442,-0.502683 1.151163,0s1.908766,-0.754025 1.525045,-1.382379c-0.373882,-0.618687 -0.255814,-1.498383 0.639535,-1.382379c0.895349,0.125671 1.141324,-0.628354 0.767442,-1.131038c-0.383721,-0.502683 0.895349,-1.131038 1.790698,-0.879696c0.905188,0.251342 3.197675,-0.125671 3.581396,-0.628354c0.373882,-0.502683 -0.767442,-1.005367 -0.767442,-2.010733c0,-1.005367 1.525045,-1.885063 2.430233,-2.010733c0.895349,-0.125671 2.036673,0 2.174419,-0.377013c0.118068,-0.377013 1.406977,-1.382379 1.525045,-0.502683c0.137746,0.879696 0,2.387746 1.023256,2.387746c1.023256,0 2.282648,-1.131038 2.676208,-1.247041c0.373882,-0.125671 2.813954,-0.628354 3.325582,-0.754025c0.511628,-0.125671 3.571557,-0.377013 3.197675,-1.256708c-0.383721,-0.870029 -0.767442,-1.749725 -1.161002,-2.126737c-0.383721,-0.377013 -0.757603,0.125671 -1.27907,0.754025c-0.501789,0.628354 -1.406977,0.628354 -1.652952,0.125671c-0.255814,-0.493016 0.118068,-2.001066 -0.767442,-1.50805c-0.905188,0.502683 -1.023256,1.005367 -1.544723,0.754025c-0.511628,-0.251342 -1.013417,-1.131038 -1.013417,-1.131038s1.269231,-0.618687 0.373882,-1.759392c-0.88551,-1.131038 -2.174419,-0.879696 -3.44365,-0.241675c-1.27907,0.618687 -1.161002,0.493016 -2.686047,0.870029s-2.302326,0.754025 -2.302326,0.754025s2.056351,-1.247041 2.941861,-2.010733c0.895349,-0.754025 2.056351,-1.131038 2.813954,-1.885063c0.767442,-0.754025 2.804115,0.377013 2.804115,0.377013s1.033095,-1.005367 1.033095,-0.377013s-0.265653,2.262075 0.501789,2.262075c0.777281,0 2.941861,-1.005367 2.06619,-1.266375c-0.915027,-0.251342 1.269231,0 2.154741,-0.628354c0.905188,-0.628354 1.908766,-0.628354 2.430233,-0.870029c0.511628,-0.251342 0.905188,-1.382379 1.790698,-1.382379c0.905188,0 1.27907,1.131038 0,1.885063s-1.406977,2.639088 -2.046512,3.141771c-0.629696,0.502683 -0.255814,1.131038 0.767442,1.005367c1.023256,-0.125671 1.908766,0.125671 2.813954,-0.125671s1.406977,0.251342 1.652952,0.628354c0.255814,0.377013 1.023256,-0.377013 1.023256,-0.377013s1.662791,-0.377013 2.174419,0.251342c0.521467,0.618687 0.905188,-0.377013 0.521467,-1.005367c-0.383721,-0.618687 -0.905188,-1.247041 -1.27907,-2.010733c-0.383721,-0.754025 -0.895349,-1.005367 -1.908766,-0.754025c-1.023256,0.251342 -1.27907,-0.251342 -1.918605,-0.618687c-0.639535,-0.38668 -1.161002,0.502683 -0.639535,-0.38668c0.521467,-0.870029 0.767442,-1.131038 1.151163,-1.885063c0.383721,-0.754025 2.056351,-2.136404 0.383721,-2.50375c-1.662791,-0.38668 -2.184258,-0.628354 -2.430233,-1.382379c-0.255814,-0.754025 -2.174419,-2.136404 -2.676208,-2.136404c-0.521467,0 -2.292487,0 -2.430233,-0.628354c-0.127907,-0.628354 -1.406977,-2.010733 -2.046512,-2.639088c-0.629696,-0.628354 -3.069768,-3.393113 -3.453489,-3.644454c-0.383721,-0.251342 -0.895349,-0.125671 -2.046512,1.382379c-1.141324,1.517717 -2.16458,1.769059 -3.069768,1.392046c-0.895349,-0.377013 -1.023256,-0.251342 -1.898927,-1.256708c-0.915027,-1.005367 0.88551,-1.131038 0.501789,-1.759392c-0.39356,-0.618687 -2.430233,-0.879696 -3.709303,-1.005367c-1.27907,-0.125671 -2.174419,-1.50805 -4.093024,-1.633721c-1.908766,-0.125671 -4.211092,0.251342 -4.850627,0.251342c-0.629696,0 -0.629696,0.879696 -0.88551,2.262075c-0.265653,1.382379 0.88551,1.759392 -0.265653,2.010733c-1.141324,0.251342 -1.662791,0.377013 -0.511628,0.879696c1.151163,0.502683 2.686047,2.513417 2.686047,2.513417s0,1.131038 -0.905188,1.759392c-0.88551,0.628354 -1.790698,1.256708 -2.292487,0.51235c-0.521467,-0.763692 -1.918605,-0.628354 -1.525045,0.125671c0.373882,0.754025 1.141324,1.131038 1.141324,1.885063c0,0.744358 1.151163,2.629421 0.383721,3.257775c-0.767442,0.628354 -1.652952,0.135338 -2.292487,0.251342s-1.288909,-1.005367 -0.767442,-1.256708c0.501789,-0.251342 -0.137746,-2.136404 -0.137746,-2.136404s-1.525045,2.136404 -1.406977,1.005367c0.137746,-1.131038 -0.629696,-1.256708 -0.629696,-2.136404c0,-0.879696 -0.777281,-1.256708 -1.908766,-1.005367c-1.161002,0.251342 -2.55814,-0.38668 -4.742398,-0.763692c-2.16458,-0.377013 -3.059929,-0.618687 -4.850627,-1.50805c-1.790698,-0.879696 -2.430233,-0.251342 -3.325582,-0.125671c-0.895349,0.125671 -0.511628,-1.759392 -1.662791,-2.001066c-1.141324,-0.261009 -1.780859,0.241675 -2.036673,-1.392046c-0.255814,-1.624054 0.383721,-2.010733 3.187836,-3.770125c2.813954,-1.759392 2.430233,-2.513417 4.604652,-2.764758c2.16458,-0.251342 3.197675,0.251342 3.197675,-0.377013s0.511628,-3.141771 0.511628,-1.885063s2.577818,1.334044 1.416816,2.21374c-1.141324,0.879696 -0.511628,1.005367 0.39356,1.005367c0.895349,0 2.548301,-0.879696 2.548301,-0.879696s2.046512,-0.879696 2.55814,-0.125671c0.521467,0.754025 0.521467,1.50805 1.416816,1.50805s2.804115,-1.005367 1.141324,-1.885063c-1.652952,-0.879696 -2.676208,-0.754025 -3.699464,-1.759392s-0.767442,-0.628354 -1.918605,-0.377013c-1.141324,0.251342 -1.141324,-0.377013 -1.534884,-0.377013s-1.023256,0.251342 -1.27907,-0.251342c-0.245975,-0.502683 0.137746,-0.628354 1.426655,-0.628354c1.269231,0 2.804115,0.377013 2.804115,0.377013s1.525045,-0.502683 1.908766,-0.628354c0.383721,-0.125671 2.430233,-0.377013 2.046512,-1.498383c-0.39356,-1.131038 -1.662791,-1.131038 -2.046512,-1.50805s0.767442,-0.870029 1.406977,-1.131038c0.639535,-0.251342 2.430233,0 2.430233,0s1.151163,0.125671 1.151163,-0.377013s-0.275492,-1.131038 0.501789,-0.754025s0,1.50805 1.151163,1.256708c1.141324,-0.251342 1.406977,0 2.036673,0.377013c0.639535,0.377013 -0.127907,1.885063 -0.757603,2.136404c-0.639535,0.241675 -1.662791,0.744358 -0.255814,0.870029c1.416816,0.135338 2.420394,0.135338 2.420394,0.135338s0.905188,-0.879696 1.288909,-1.633721c0.373882,-0.754025 1.023256,-0.251342 1.525045,0c0.511628,0.241675 2.430233,0.628354 0.639535,1.131038c-1.800537,0.502683 -2.174419,1.131038 -2.55814,1.759392c-0.373882,0.628354 -0.521467,1.005367 -2.174419,0.628354c-1.67263,-0.377013 -2.55814,-0.251342 -2.941861,0.377013c-0.383721,0.618687 -0.127907,2.639088 0.521467,2.387746c0.619857,-0.251342 1.269231,-0.251342 2.036673,-0.502683c0.767442,-0.251342 3.83721,0.251342 4.594813,0.125671c0.767442,-0.125671 2.056351,1.256708 2.440072,1.005367c0.383721,-0.251342 1.151163,0.502683 1.908766,1.005367c0.767442,0.502683 0.511628,-1.131038 1.908766,-0.125671c1.416816,1.005367 0.639535,1.005367 1.416816,1.005367c0.747764,0 2.420394,0.125671 2.420394,0.125671s0.137746,-1.247041 1.416816,-1.005367c1.27907,0.251342 2.410555,1.633721 2.282648,0.618687c-0.118068,-0.9957 0.127907,-1.749725 -0.88551,-2.50375c-1.023256,-0.754025 -2.676208,-1.256708 -2.941861,-1.633721c-0.255814,-0.377013 -0.511628,-0.879696 -0.127907,-1.131038c0.383721,-0.241675 2.174419,0.125671 3.187836,0.763692c1.023256,0.628354 1.918605,1.256708 2.686047,0.754025c0.757603,-0.502683 1.67263,-0.754025 2.046512,-1.131038c0.373882,-0.38668 1.27907,-1.50805 1.27907,-1.50805s-3.847049,-0.493016 -4.338999,-1.131038c-0.521467,-0.628354 -2.312165,-1.50805 -2.823793,-1.50805s-1.908766,0.879696 -2.420394,-0.377013s-0.511628,-2.764758 -1.033095,-2.890429c-0.49195,-0.125671 -5.873883,-0.879696 -6.631486,-1.256708c-0.767442,-0.377013 -3.83721,-1.256708 -4.988373,-1.885063s-2.813954,-1.50805 -3.827371,-1.50805c-1.023256,0 -5.244187,0.502683 -6.011629,0.377013c-0.767442,-0.125671 -3.069768,0.251342 -3.965117,0.377013c-0.895349,0.125671 1.151163,1.759392 -0.757603,2.136404c-1.918605,0.377013 -1.662791,0.628354 -1.27907,-1.256708c0.373882,-1.885063 -1.288909,-2.387746 -2.941861,-1.633721c-1.662791,0.754025 -4.348838,1.256708 -3.709303,2.136404c0.639535,0.879696 -0.118068,1.517717 1.151163,2.387746c1.27907,0.879696 1.800537,1.131038 3.44365,1.005367c1.67263,-0.125671 3.335421,0.241675 3.335421,0.241675s0,1.517717 -0.629696,1.759392c-0.639535,0.251342 -1.662791,0.251342 -1.928444,1.005367c-0.245975,0.754025 -1.525045,1.131038 -1.525045,0.754025s0.639535,-1.633721 -0.255814,-2.262075c-0.88551,-0.628354 -1.151163,-0.754025 -2.174419,-0.125671c-1.023256,0.628354 -1.141324,0.879696 -1.662791,-0.125671c-0.511628,-1.005367 -2.046512,-1.885063 -2.046512,-1.885063s-1.023256,-1.247041 -1.790698,-1.875396c-0.757603,-0.628354 -2.16458,-0.502683 -2.302326,0.125671c-0.127907,0.618687 0.255814,1.247041 0.767442,2.387746c0.511628,1.131038 1.023256,3.257775 0.127907,3.393113c-0.895349,0.125671 -1.023256,0.251342 -1.918605,0.502683c-0.895349,0.251342 -1.27907,-0.377013 -1.27907,-1.382379s-0.39356,-1.885063 -0.127907,-2.262075c0.255814,-0.377013 -1.023256,0.261009 -2.302326,0c-1.27907,-0.241675 -2.292487,0.502683 -1.023256,0.889363c1.27907,0.377013 1.544723,1.875396 0.383721,2.252408c-1.151163,0.377013 -5.500001,0 -6.906978,0s-3.44365,0.377013 -3.83721,-0.377013c-0.383721,-0.754025 1.161002,-1.247041 2.046512,-1.247041c0.895349,0 3.571557,0.116004 4.594813,-1.256708c1.023256,-1.382379 -1.27907,-1.633721 -2.292487,-1.633721c-1.023256,0 -1.800537,-0.377013 -2.941861,-1.498383c-1.161002,-1.131038 0.767442,-1.885063 0.511628,-2.387746c-0.255814,-0.502683 -1.534884,-0.135338 -2.676208,-0.135338c-1.151163,0 -2.941861,-0.870029 -2.941861,0.135338c0,1.005367 1.406977,3.886129 0.511628,3.257775c-0.895349,-0.618687 -0.767442,-1.50805 -1.406977,-2.262075c-0.639535,-0.754025 -1.652952,-0.628354 -2.941861,-0.502683c-1.269231,0.125671 -3.44365,0.502683 -4.083185,0.377013c-0.629696,-0.125671 -0.127907,-0.125671 -1.534884,-0.754025c-1.397138,-0.628354 -2.046512,-0.502683 -3.069768,-1.131038c-1.013417,-0.647688 -0.118068,-0.889363 -1.908766,-1.015034c-1.780859,-0.125671 -1.652952,0.870029 -3.44365,0.628354c-1.790698,-0.251342 -2.302326,0.125671 -4.093024,0c-1.790698,-0.125671 -2.676208,-0.251342 -2.941861,0.628354c-0.245975,0.879696 -0.767442,2.387746 -1.534884,2.387746c-0.757603,0 -1.662791,0.879696 0.767442,1.005367c2.430233,0.125671 1.033095,1.247041 3.197675,1.131038c2.174419,-0.125671 4.093024,-0.125671 4.604652,-1.131038c0.511628,-1.005367 0.895349,-1.005367 1.151163,-0.628354c0.245975,0.377013 2.16458,2.629421 2.16458,2.629421s1.288909,1.005367 1.800537,1.256708c0.501789,0.251342 -0.511628,1.382379 -1.534884,0.754025c-1.023256,-0.628354 -2.941861,-0.493016 -3.709303,-1.121371c-0.767442,-0.628354 -4.220931,-0.628354 -5.11628,-0.502683c-0.88551,0.125671 -2.430233,-0.377013 -2.941861,-0.377013c-0.501789,0 -2.174419,1.256708 -2.174419,1.256708s-0.639535,-1.015034 -1.013417,-1.517717c-0.383721,-0.502683 -1.023256,0.502683 -1.534884,0.628354c-0.511628,0.125671 -2.046512,-1.005367 -3.581396,-0.502683c-1.534884,0.502683 -1.023256,1.005367 -3.197675,0.879696s-2.676208,-0.502683 -3.44365,-0.377013c-0.777281,0.125671 -0.777281,0.125671 -0.777281,0.125671s0.127907,0.502683 -0.757603,1.005367c-0.895349,0.502683 -1.544723,1.131038 -2.184258,0.377013c-0.629696,-0.754025 -1.013417,-0.754025 -1.397138,-0.879696c-0.39356,-0.125671 -1.161002,-0.754025 -2.813954,-0.38668c-1.662791,0.38668 -4.220931,-0.493016 -4.72272,-0.493016c-0.39356,0 -3.079607,-0.145005 -4.830949,-0.319011c20.750451,-22.156736 50.415035,-36.154534 83.41504,-36.154534c20.937392,0 40.507162,5.693856 57.361369,15.447846c-1.151163,0.696023 -3.138641,0.580019 -3.817532,0.222341c-0.767442,-0.41568 -1.554562,-0.754025 -4.673525,-0.589686c-3.118963,0.174006 -6.542935,1.179373 -5.854205,2.184739c0.708408,1.005367 -1.397138,1.595053 -1.938283,1.09237c-0.541145,-0.502683 -3.040251,0.580019 -2.882827,1.595053c0.157424,1.005367 -0.383721,2.175072 -1.721825,1.923731c-1.318426,-0.261009 -2.253131,0.580019 -2.331843,1.41138c-0.068873,0.841028 -3.040251,1.421047 -3.266548,1.421047c-0.236136,0 -4.053668,-0.077336 -2.65653,0.918364c0.954383,0.667022 1.47585,0.261009 2.65653,0.502683c1.170841,0.251342 2.105546,2.097736 2.725403,2.349078c0.610018,0.251342 1.47585,0 1.859571,-0.502683c0.39356,-0.502683 0.934705,-2.262075 0.934705,-2.262075s0,1.672389 0.954383,2.010733c0.934705,0.338345 3.256709,-0.251342 3.886405,-0.164339c0.629696,0.077336 4.299643,0.589686 5.293382,1.082703c1.023256,0.502683 3.502684,0.841028 4.211092,1.923731c0.698569,1.09237 0.78712,4.862495 1.170841,5.278175c0.39356,0.41568 1.711986,-1.343711 2.016995,-1.759392c0.305009,-0.425347 1.948122,-0.174006 2.499106,0.406013c0.550984,0.589686 1.790698,2.010733 1.721825,2.60042c-0.09839,0.599353 -0.324687,1.50805 -0.78712,1.179373c-0.472272,-0.328678 -1.249553,-0.241675 -0.944544,-0.918364c0.314848,-0.667022 0.472272,-2.097736 -0.147585,-2.097736c-0.629696,0 -1.170841,0 -1.170841,0s-1.18068,-0.338345 -1.957961,0.918364s-0.147585,2.513417 0.39356,2.513417s1.810376,0 1.810376,0.328678c0,0.338345 -1.338104,1.343711 -1.259392,1.933398c0.088551,0.589686 1.08229,2.590753 1.416816,3.0161c0.305009,0.41568 1.938283,0.831361 2.400716,0.928031c0.482111,0.077336 -1.092129,0.164339 -0.68873,0.744358c0.39356,0.589686 1.003578,2.010733 1.859571,2.349078c0.855993,0.338345 3.276387,1.836728 3.571557,2.513417c0.314848,0.667022 2.184258,-0.502683 2.577818,-0.589686c0.39356,-0.077336 0.314848,1.759392 1.406977,1.846395c1.08229,0.077336 1.47585,-0.174006 2.410555,-0.928031s0.708408,-1.759392 0.777281,-2.513417c0.088551,-0.754025 0,-1.334044 1.023256,-1.09237c1.023256,0.251342 1.554562,-0.174006 1.47585,-1.005367c-0.078712,-0.841028 -0.934705,-1.846395 0.68873,-2.097736c1.643113,-0.251342 2.499106,-1.334044 3.512523,-1.334044c1.013417,0 3.827371,0.41568 4.122541,0c0.314848,-0.41568 1.643113,-2.349078 2.499106,-2.426414c0.659213,-0.067669 2.203936,-0.203007 3.788015,-0.406013c15.565298,18.222272 25.197678,41.413375 26.299646,66.75055c-1.161002,1.537051 -0.118068,2.948431 0.206619,3.944131c0.009839,0.29001 0.049195,0.560685 0.049195,0.850695c0,1.31471 -0.157424,2.60042 -0.206619,3.905463c-0.009839,0.019334 -0.009839,0.038668 -0.029517,0.058002zm-95.595722,-41.819389c-0.629696,0.125671 -1.662791,-0.502683 -1.662791,-1.382379s-0.895349,1.633721 -0.39356,2.387746c0.521467,0.754025 -1.023256,1.633721 -1.525045,1.633721s-0.895349,-1.121371 -0.767442,-2.252408c0.137746,-1.131038 -0.757603,-2.136404 -2.174419,-2.010733c-1.406977,0.135338 -2.046512,1.256708 -2.548301,1.633721c-0.521467,0.377013 -0.521467,2.50375 -0.39356,3.0161s0.127907,2.271742 -1.141324,2.136404c-1.161002,-0.125671 -0.905188,-2.252408 -0.777281,-3.0161c0.137746,-0.754025 -0.383721,-2.639088 0.137746,-3.634787c0.521467,-1.005367 2.036673,-1.382379 3.069768,-1.50805s3.187836,0.628354 3.571557,0.502683c0.39356,-0.135338 2.184258,-0.135338 3.069768,0c0.895349,0.106337 2.16458,2.368412 1.534884,2.494083zm2.292487,0.377013c0.39356,0.251342 3.059929,-0.377013 3.581396,0.251342c0.501789,0.628354 -0.531306,0.754025 -1.800537,1.256708c-1.269231,0.502683 -1.662791,0.377013 -2.174419,1.005367s-2.174419,0.870029 -2.941861,1.624054c-0.767442,0.763692 -2.135063,1.208373 -2.420394,0.628354c-0.39356,-0.754025 0.127907,-0.377013 0.245975,-0.754025c0.127907,-0.377013 2.410555,-1.247041 2.410555,-1.247041s2.715564,-3.0161 3.099285,-2.764758zm-10.222721,-4.398479c-0.373882,0.125671 -1.790698,-0.251342 -2.9517,-0.251342c-1.141324,0 -0.895349,-0.754025 -1.406977,-0.618687c-0.501789,0.125671 -1.652952,0.377013 -2.430233,0.754025c-0.767442,0.377013 -2.046512,0.29001 -2.046512,-0.38668c0,-1.005367 0.511628,-0.754025 2.174419,-1.382379c1.662791,-0.628354 3.463328,-2.387746 4.220931,-1.633721c0.767442,0.754025 2.174419,1.633721 3.069768,1.759392c0.905188,0.135338 -0.255814,1.633721 -0.629696,1.759392zm-13.076031,-38.967628c-0.777281,0.251342 -3.414133,1.343711 -3.158319,1.923731c0.09839,0.222341 0.767442,0.667022 1.86941,0.502683c1.111807,-0.174006 2.715564,-0.338345 3.492845,-0.41568c0.767442,-0.087003 0.934705,-1.343711 0.088551,-1.421047c-0.855993,-0.087003 -1.534884,-0.841028 -2.292487,-0.589686zm-9.455279,1.005367c-0.600179,0.251342 -2.390877,-0.41568 -3.325582,0.174006c-0.600179,0.367346 -0.255814,1.585386 0.68873,1.662722c0.934705,0.087003 2.548301,-0.580019 2.715564,-0.077336c0.177102,0.502683 0.767442,2.764758 2.302326,2.010733c1.534884,-0.754025 1.446333,-1.421047 1.86941,-1.50805c0.423077,-0.087003 -0.078712,-1.923731 -0.767442,-2.349078c-0.678891,-0.41568 -2.892666,-0.164339 -3.483006,0.087003zm-3.079607,-7.114903c0.167263,0.425347 -0.078712,0.754025 1.111807,0.918364c1.190519,0.174006 1.702147,0.338345 2.390877,0.338345c0.678891,0 0.413238,-1.09237 -0.177102,-1.836728c-0.600179,-0.754025 -0.423077,-0.667022 -1.957961,-1.09237c-1.534884,-0.41568 -3.069768,-0.41568 -4.093024,-0.338345c-1.023256,0.087003 -2.135063,-0.164339 -2.390877,1.005367c-0.127907,0.599353 0.68873,1.082703 1.711986,1.082703s3.237031,-0.493016 3.404294,-0.077336zm2.223614,4.601486c0.423077,0.918364 0.423077,0.493016 1.623435,0.589686c1.18068,0.087003 2.115385,-1.169706 2.203936,-1.585386c0.088551,-0.425347 -0.600179,-1.256708 -2.213775,-1.09237c-1.623435,0.164339 -6.562613,-0.251342 -7.241504,0.328678c-0.649374,0.560685 0,2.252408 -0.255814,2.426414c-0.255814,0.164339 0.088551,0.918364 0.757603,0.754025c0.678891,-0.164339 1.023256,-1.759392 1.544723,-1.759392c0.511628,0.009667 3.158319,-0.580019 3.581396,0.338345zm-16.027731,-3.431781c0.511628,0.41568 1.800537,0.077336 1.702147,-0.338345c-0.078712,-0.41568 0.521467,-2.097736 -0.501789,-2.175072c-1.023256,-0.077336 -2.45975,0.928031 -4.004473,1.430714c-0.993739,0.319011 -0.767442,1.256708 -0.088551,1.256708s2.390877,-0.589686 2.892666,-0.174006zm7.261182,1.50805c-0.855993,0.41568 -1.121646,0.667022 -1.879249,0.502683c-0.767442,-0.164339 -0.767442,-1.50805 -2.135063,-1.256708c-1.357782,0.251342 -1.613596,1.005367 -2.036673,1.343711s-1.367621,0.589686 -1.702147,0.41568c-0.334526,-0.164339 -2.302326,-1.247041 -2.302326,-1.247041s-4.093024,-0.174006 -4.260287,-0.676689c-0.167263,-0.502683 -0.846154,-1.334044 -2.725403,-1.169706s-5.11628,1.256708 -5.627908,1.256708c-0.511628,0 0.610018,1.005367 -0.088551,1.005367c-0.678891,0 -1.525045,-0.077336 -1.780859,0.667022c-0.177102,0.51235 0.767442,0.502683 1.859571,0.502683c1.101968,0 2.902505,0 3.414133,-0.251342c0.511628,-0.251342 3.069768,-0.841028 2.981217,-0.087003c-0.088551,0.763692 1.023256,1.923731 1.613596,1.759392c0.600179,-0.164339 1.800537,-1.256708 2.390877,-0.831361c0.600179,0.41568 0.68873,1.41138 1.27907,1.672389c0.600179,0.241675 2.223614,0.241675 2.991056,0c0.757603,-0.261009 2.892666,-0.261009 3.827371,-0.087003c0.934705,0.174006 3.669947,0.667022 3.925761,0.174006c0.255814,-0.51235 1.023256,-0.589686 1.101968,-1.09237s0.501789,-2.088069 0.501789,-2.088069s-0.501789,-0.928031 -1.347943,-0.51235zm43.144014,86.587209c-1.170841,0.203007 -0.895349,2.436081 0.511628,2.030067c1.406977,-0.406013 0.649374,-2.242741 -0.511628,-2.030067zm11.11807,-2.996766c-1.023256,-0.251342 -2.174419,0 -2.941861,0.125671c-0.767442,0.125671 -2.941861,2.010733 -2.941861,2.010733s1.406977,0.251342 2.292487,0.251342c0.905188,0 1.416816,0.493016 2.174419,0.870029c0.767442,0.38668 2.174419,-0.502683 2.676208,-0.502683c0.521467,0 1.161002,1.50805 1.288909,-0.125671c0.137746,-1.633721 -1.525045,-2.378079 -2.548301,-2.629421zm-35.60734,-81.415371c-0.423077,-1.005367 -2.548301,-1.343711 -2.991056,-0.338345c-0.373882,0.879696 3.414133,1.343711 2.991056,0.338345zm24.371202,75.2575c1.406977,-0.251342 0.629696,-1.392046 -0.521467,-1.256708c-1.161002,0.125671 -0.895349,1.50805 0.521467,1.256708zm16.991953,7.762591c-1.170841,0.212674 -0.905188,2.445748 0.501789,2.039734c1.416816,-0.406013 0.649374,-2.242741 -0.501789,-2.039734zm-15.476747,-3.741124c-0.88551,0.125671 -2.804115,-0.870029 -3.827371,-1.759392c-1.023256,-0.879696 -2.941861,-0.879696 -3.709303,-0.879696c-0.757603,0 -3.83721,0.879696 -3.83721,0.879696c-0.127907,1.256708 1.151163,0.879696 2.686047,0.879696s4.220931,-0.251342 4.712881,0.377013c0.521467,0.618687 2.813954,1.624054 3.463328,2.136404c0.629696,0.502683 2.676208,0.628354 2.804115,0.125671s-1.397138,-1.885063 -2.292487,-1.759392zm-15.240611,-80.19733c-1.27907,-0.087003 -2.902505,-0.087003 -3.925761,0c-1.023256,0.077336 -1.790698,-0.667022 -2.55814,-1.09237c-0.757603,-0.41568 -2.469589,-1.759392 -3.483006,-1.923731c-1.023256,-0.164339 -0.846154,-0.164339 -2.981217,-0.667022c-1.08229,-0.261009 -2.892666,-0.589686 -2.892666,-0.831361c0,-0.251342 -0.511628,1.169706 0.423077,1.595053c0.934705,0.41568 2.469589,1.169706 3.571557,1.585386c1.121646,0.41568 3.237031,0.502683 3.925761,1.343711c0.678891,0.831361 2.981217,1.50805 2.981217,1.50805l2.725403,0.251342c0,0 1.879249,-0.41568 3.83721,-0.251342c1.957961,0.164339 4.850627,0.41568 6.483901,0.338345c1.603757,-0.077336 1.859571,-0.589686 2.046512,-0.918364c0.157424,-0.338345 -2.991056,-1.005367 -3.768337,-0.918364c-0.747764,0.058002 -5.11628,0.058002 -6.385511,-0.019334zm4.762076,19.25664c-0.334526,0.377013 1.544723,0.918364 1.879249,0.41568c0.334526,-0.493016 -1.003578,-1.334044 -1.879249,-0.41568zm5.726298,1.749725c0.846154,-0.338345 0.423077,-1.343711 -0.777281,-1.005367c-1.357782,0.38668 -0.088551,1.343711 0.777281,1.005367z" stroke-width="1.5" fill="#fc9c1e"/>
  <text filter="url(#svg_2_blur)" font-style="italic" font-weight="bold" stroke="#000" transform="rotate(-5 313.5248107910165,202.84083557128884) matrix(1.577233098879458,0,0,3.3602396367906047,-101.30378898047545,-258.22654387959653) " xml:space="preserve" text-anchor="start" font-family="Euphoria, sans-serif" font-size="30" id="svg_2" y="147.584615" x="136.275577" stroke-opacity="null" stroke-width="0" fill="#1d7684">Cristhian Recalde</text>
 </g>
</svg>